<svg width="100.007843" height="59.971313" viewBox="0 0 100.008 59.9713" fill="none" xmlns="http://www.w3.org/2000/svg" xmlns:xlink="http://www.w3.org/1999/xlink">
	<desc>
			Created with Pixso.
	</desc>
	<defs>
		<linearGradient x1="9.242999" y1="29.994568" x2="210.416428" y2="29.994568" id="paint_linear_1_13_0" gradientUnits="userSpaceOnUse">
			<stop stop-color="#B8005F"/>
			<stop offset="1.000000" stop-color="#00FFFF"/>
		</linearGradient>
	</defs>
	<path d="M97.53 15.65L99.97 2.09C100.18 1 99.3 0 98.2 0L52.46 0L18.35 0C17.71 0 17.1 0.34 16.78 0.88L0.24 29.11C-0.09 29.65 -0.09 30.34 0.24 30.88L16.78 59.08C17.1 59.62 17.71 59.97 18.35 59.97L41.74 59.97L52.46 59.97L88.58 59.97C89.46 59.97 90.21 59.34 90.36 58.47L92.81 44.74C93.01 43.65 92.14 42.64 91.03 42.64L70.15 42.64C69.01 42.64 68.16 41.64 68.37 40.52L68.66 38.97C68.81 38.11 69.56 37.51 70.44 37.51L88.64 37.51C89.52 37.51 90.27 36.88 90.45 36.02L92.52 24.34C92.72 23.26 91.85 22.25 90.71 22.25L73.79 22.25C72.65 22.25 71.81 21.25 71.98 20.16L72.24 18.61C72.39 17.75 73.15 17.12 74.05 17.12L95.69 17.12C96.62 17.15 97.38 16.52 97.53 15.65ZM22.34 49.64L11.36 30.88C11.04 30.34 11.04 29.65 11.36 29.11L22.34 10.35C22.66 9.8 23.28 9.46 23.92 9.46L45.91 9.46C46.55 9.46 47.16 9.8 47.48 10.35L58.46 29.11C58.78 29.65 58.78 30.34 58.46 30.88L47.48 49.64C47.16 50.19 46.55 50.53 45.91 50.53L23.92 50.53C23.25 50.53 22.66 50.19 22.34 49.64Z" fill="url(#paint_linear_1_13_0)" fill-opacity="1.000000" fill-rule="nonzero"/>
</svg>
